<svg fill="none" xmlns="http://www.w3.org/2000/svg">

    <symbol id="logo" viewBox="0 0 130 60" fill="none">
        <path d="M4.95672 0H0V35.7986H4.95672V22.5177C4.95672 20.2709 5.51557 18.4984 6.63326 17.2502C7.75095 16.002 9.2817 15.353 11.1769 15.353C12.8049 15.353 14.1655 15.9521 15.2589 17.1004C16.3523 18.2738 16.9112 19.7466 16.9112 21.5191V35.8236H21.8922V21.5191C21.8922 18.2238 20.9932 15.6276 19.1951 13.6804C17.3971 11.7332 15.0402 10.7596 12.1731 10.7596C11.347 10.7596 10.5209 10.8594 9.71906 11.0841C8.89294 11.3088 8.2369 11.5584 7.70235 11.833C7.16781 12.1076 6.65756 12.4072 6.1959 12.7567C5.73424 13.1062 5.41838 13.3558 5.27259 13.5056C5.1268 13.6554 5.00532 13.7552 4.95672 13.8301V0Z" 
            fill="#F0145A"/>
        <path d="M32.9727 0H27.8628V35.7689H32.9727V0Z" 
            fill="white"/>
        <path d="M63.1115 25.2935L63.367 22.7386C63.367 19.315 62.2428 16.4535 59.9434 14.1541C57.6439 11.8546 54.7824 10.7305 51.3588 10.7305C47.9352 10.7305 44.9715 11.9568 42.5188 14.4096C40.0661 16.8623 38.8397 19.7749 38.8397 23.2496C38.8397 26.8265 40.1172 29.8924 42.621 32.4473C45.1248 35.0022 48.1396 36.2797 51.6143 36.2797C52.9429 36.2797 54.1692 36.0753 55.3956 35.7176C56.622 35.3088 57.6439 34.9 58.3593 34.4912C59.1258 34.0313 59.8923 33.5204 60.5565 32.9583C61.2208 32.3962 61.6807 31.9874 61.8851 31.7319C62.0895 31.4764 62.2428 31.3231 62.345 31.1698L59.0236 27.8484L58.2571 28.8193C57.7461 29.4325 56.8775 30.0457 55.6511 30.7099C54.3736 31.3742 53.0451 31.6808 51.6143 31.6808C49.6215 31.6808 47.9352 31.0676 46.5045 29.7902C45.0737 28.5127 44.2051 27.0309 43.9496 25.2935H63.1115ZM51.3588 15.0738C53.2495 15.0738 54.7824 15.6359 56.0599 16.709C57.2862 17.8331 58.0527 19.2128 58.3593 20.9501H44.154C44.6138 19.2128 45.4314 17.8331 46.7089 16.709C47.9352 15.6359 49.5193 15.0738 51.3588 15.0738Z" 
            fill="white"/>
        <path d="M86.9429 34.2868C86.9429 36.5351 86.2786 38.3747 84.899 39.8054C83.5704 41.1851 81.8842 41.9005 79.7891 41.9005C78.8694 41.9005 77.9496 41.7472 77.0809 41.4917C76.2122 41.2362 75.548 40.9296 74.9859 40.5719C74.4238 40.2142 73.9128 39.8565 73.4018 39.3967C72.9419 38.9368 72.6354 38.6302 72.4821 38.4769C72.3288 38.3236 72.2266 38.1703 72.1244 38.0681L68.803 41.3895L69.2118 41.9005C69.4673 42.2582 69.9271 42.718 70.5403 43.229C71.1535 43.6889 71.8689 44.1999 72.6865 44.7109C73.504 45.1708 74.526 45.5796 75.8035 45.9372C77.0809 46.2949 78.4095 46.4993 79.7891 46.4993C83.2638 46.4993 86.1253 45.3241 88.5269 42.9735C90.8775 40.5719 92.0527 37.7104 92.0527 34.2357V11.2415H86.9429V13.7964L86.0742 13.0299C85.5121 12.5189 84.6435 12.0079 83.4171 11.4969C82.1907 10.986 80.8622 10.7305 79.5336 10.7305C76.4166 10.7305 73.7595 11.9057 71.4601 14.3074C69.1607 16.709 68.0365 19.5705 68.0365 22.9941C68.0365 26.4177 69.1607 29.2792 71.4601 31.6808C73.7595 34.0824 76.4166 35.2577 79.5336 35.2577C80.4023 35.2577 81.2199 35.1555 82.0885 34.9511C82.9061 34.6956 83.5704 34.4401 84.1325 34.1846C84.6946 33.9291 85.2055 33.6225 85.6654 33.2648C86.1253 32.9072 86.483 32.6517 86.5852 32.5495L86.9429 32.1918V34.2868ZM73.1463 22.9941C73.1463 20.8479 73.8106 19.0595 75.1903 17.5777C76.5699 16.0958 78.2051 15.3293 80.0446 15.3293C81.8842 15.3293 83.5193 16.0958 84.899 17.5777C86.2275 19.0595 86.9429 20.8479 86.9429 22.9941C86.9429 25.1402 86.2275 26.9287 84.899 28.4105C83.5193 29.8924 81.8842 30.6588 80.0446 30.6588C78.2051 30.6588 76.5699 29.8924 75.1903 28.4105C73.8106 26.9287 73.1463 25.1402 73.1463 22.9941Z" 
            fill="white"/>
        <path d="M118.724 35.7687V19.9282C118.724 17.3222 117.753 15.1249 115.863 13.3876C113.972 11.5991 111.519 10.7305 108.504 10.7305C107.329 10.7305 106.154 10.8838 105.03 11.1904C103.906 11.548 102.986 11.9057 102.322 12.3145C101.657 12.7233 100.993 13.1832 100.38 13.7453C99.7666 14.2563 99.409 14.6139 99.2046 14.8183C99.0513 15.0227 98.898 15.176 98.7958 15.3293L102.117 18.6507L102.781 17.782C103.19 17.22 103.906 16.709 104.979 16.1469C106.052 15.5848 107.227 15.3293 108.504 15.3293C109.986 15.3293 111.213 15.7892 112.184 16.6579C113.154 17.5266 113.614 18.6507 113.614 19.9282L104.672 21.4611C102.475 21.8188 100.686 22.6875 99.46 24.0672C98.1826 25.4468 97.5183 27.1331 97.5183 29.1259C97.5183 31.0165 98.3359 32.6517 99.971 34.0824C101.657 35.5643 103.701 36.2797 106.205 36.2797C107.074 36.2797 107.891 36.1775 108.709 35.922C109.578 35.7176 110.242 35.4621 110.804 35.2066C111.366 34.9511 111.877 34.6445 112.337 34.2868C112.797 33.9291 113.103 33.6736 113.308 33.5715C113.461 33.4182 113.563 33.2649 113.614 33.2138V35.7687H118.724ZM106.972 31.6808C105.643 31.6808 104.57 31.3742 103.803 30.761C102.986 30.1479 102.628 29.4325 102.628 28.6149C102.628 27.7462 102.884 26.9798 103.446 26.4177C104.008 25.8556 104.774 25.4468 105.694 25.2935L113.614 24.0161V24.527C113.614 26.8265 113.052 28.5638 111.877 29.8413C110.702 31.0676 109.067 31.6808 106.972 31.6808Z" 
            fill="white"/>
        <path d="M130 0H124.89V35.7689H130V0Z" 
            fill="white"/>
        <path d="M0 53.1185H1.59915V58.7253H5.06396V60.0283H0V53.1185Z" 
            fill="white"/>
        <path d="M15.5016 58.5477H12.2934L11.6814 60.0283H10.0428L13.1226 53.1185H14.702L17.7917 60.0283H16.1136L15.5016 58.5477ZM14.9982 57.3335L13.9025 54.688L12.8067 57.3335H14.9982Z" 
            fill="white"/>
        <path d="M33.5121 53.1185L31.2516 60.0283H29.534L28.0138 55.3494L26.4443 60.0283H24.7366L22.4662 53.1185H24.1245L25.6842 57.9751L27.313 53.1185H28.7937L30.3731 58.0146L31.9821 53.1185H33.5121Z" 
            fill="white"/>
        <path d="M50.5232 60.1468C49.819 60.1468 49.1807 59.9954 48.6082 59.6927C48.0422 59.3834 47.5947 58.959 47.2657 58.4193C46.9432 57.8731 46.782 57.2578 46.782 56.5734C46.782 55.889 46.9432 55.277 47.2657 54.7373C47.5947 54.1911 48.0422 53.7667 48.6082 53.464C49.1807 53.1547 49.8223 53 50.5331 53C51.1319 53 51.6716 53.1053 52.152 53.3159C52.6389 53.5265 53.047 53.8292 53.376 54.224L52.3494 55.1717C51.8821 54.6321 51.303 54.3622 50.612 54.3622C50.1843 54.3622 49.8026 54.4577 49.467 54.6485C49.1313 54.8328 48.8681 55.0927 48.6773 55.4283C48.493 55.764 48.4009 56.1456 48.4009 56.5734C48.4009 57.0012 48.493 57.3828 48.6773 57.7185C48.8681 58.0541 49.1313 58.3173 49.467 58.5082C49.8026 58.6924 50.1843 58.7846 50.612 58.7846C51.303 58.7846 51.8821 58.5115 52.3494 57.9653L53.376 58.9129C53.047 59.3143 52.6389 59.6203 52.152 59.8309C51.665 60.0415 51.1221 60.1468 50.5232 60.1468Z" 
            fill="white"/>
        <path d="M62.5933 60.1468C61.876 60.1468 61.2278 59.9922 60.6487 59.6829C60.0761 59.3736 59.6253 58.9491 59.2963 58.4095C58.9738 57.8632 58.8126 57.2512 58.8126 56.5734C58.8126 55.8956 58.9738 55.2868 59.2963 54.7472C59.6253 54.201 60.0761 53.7733 60.6487 53.464C61.2278 53.1547 61.876 53 62.5933 53C63.3106 53 63.9555 53.1547 64.5281 53.464C65.1006 53.7733 65.5514 54.201 65.8804 54.7472C66.2095 55.2868 66.374 55.8956 66.374 56.5734C66.374 57.2512 66.2095 57.8632 65.8804 58.4095C65.5514 58.9491 65.1006 59.3736 64.5281 59.6829C63.9555 59.9922 63.3106 60.1468 62.5933 60.1468ZM62.5933 58.7846C63.0013 58.7846 63.3698 58.6924 63.6989 58.5082C64.0279 58.3173 64.2846 58.0541 64.4688 57.7185C64.6597 57.3828 64.7551 57.0012 64.7551 56.5734C64.7551 56.1456 64.6597 55.764 64.4688 55.4283C64.2846 55.0927 64.0279 54.8328 63.6989 54.6485C63.3698 54.4577 63.0013 54.3622 62.5933 54.3622C62.1853 54.3622 61.8168 54.4577 61.4877 54.6485C61.1587 54.8328 60.8987 55.0927 60.7079 55.4283C60.5236 55.764 60.4315 56.1456 60.4315 56.5734C60.4315 57.0012 60.5236 57.3828 60.7079 57.7185C60.8987 58.0541 61.1587 58.3173 61.4877 58.5082C61.8168 58.6924 62.1853 58.7846 62.5933 58.7846Z" 
            fill="white"/>
        <path d="M78.7995 60.0283L78.7896 55.8824L76.7561 59.2979H76.0355L74.0119 55.9713V60.0283H72.5115V53.1185H73.8342L76.4205 57.4125L78.9673 53.1185H80.2802L80.2999 60.0283H78.7995Z" 
            fill="white"/>
        <path d="M89.8659 53.1185C90.478 53.1185 91.0077 53.2205 91.4552 53.4245C91.9093 53.6285 92.2581 53.918 92.5016 54.2931C92.7451 54.6682 92.8668 55.1125 92.8668 55.6258C92.8668 56.1325 92.7451 56.5767 92.5016 56.9584C92.2581 57.3335 91.9093 57.623 91.4552 57.8271C91.0077 58.0245 90.478 58.1232 89.8659 58.1232H88.4741V60.0283H86.8749V53.1185H89.8659ZM89.7771 56.8202C90.2575 56.8202 90.6227 56.7182 90.8728 56.5142C91.1229 56.3036 91.2479 56.0074 91.2479 55.6258C91.2479 55.2375 91.1229 54.9414 90.8728 54.7373C90.6227 54.5268 90.2575 54.4215 89.7771 54.4215H88.4741V56.8202H89.7771Z" 
            fill="white"/>
        <path d="M103.148 58.5477H99.9396L99.3276 60.0283H97.6889L100.769 53.1185H102.348L105.438 60.0283H103.76L103.148 58.5477ZM102.644 57.3335L101.549 54.688L100.453 57.3335H102.644Z" 
            fill="white"/>
        <path d="M117.428 53.1185V60.0283H116.115L112.67 55.8331V60.0283H111.09V53.1185H112.413L115.848 57.3137V53.1185H117.428Z" 
            fill="white"/>
        <path d="M127.315 57.5803V60.0283H125.716V57.5605L123.041 53.1185H124.739L126.585 56.1884L128.43 53.1185H130L127.315 57.5803Z" 
            fill="white"/>
    </symbol>

    <symbol id="logo-services" viewBox="0 0 169 57" fill="none">
        <path d="M2.64358 15H0V34.0926H2.64358V27.0094C2.64358 25.8111 2.94163 24.8658 3.53774 24.2001C4.13384 23.5344 4.95024 23.1882 5.96102 23.1882C6.82926 23.1882 7.55495 23.5078 8.13809 24.1202C8.72123 24.746 9.01929 25.5315 9.01929 26.4769V34.1059H11.6758V26.4769C11.6758 24.7194 11.1964 23.3347 10.2374 22.2962C9.27846 21.2577 8.02146 20.7384 6.49233 20.7384C6.05173 20.7384 5.61114 20.7917 5.1835 20.9115C4.7429 21.0313 4.39301 21.1645 4.10792 21.3109C3.82283 21.4574 3.5507 21.6172 3.30448 21.8036C3.05826 21.99 2.8898 22.1231 2.81205 22.203C2.73429 22.2829 2.6695 22.3361 2.64358 22.3761V15Z" fill="#F0145A"/>
        <path d="M17.5856 15H14.8604V34.0767H17.5856V15Z" fill="white"/>
        <path d="M33.6598 28.4896L33.796 27.127C33.796 25.3011 33.1965 23.7749 31.9701 22.5486C30.7438 21.3222 29.2176 20.7227 27.3917 20.7227C25.5658 20.7227 23.9851 21.3767 22.677 22.6848C21.3689 23.993 20.7148 25.5463 20.7148 27.3995C20.7148 29.3072 21.3962 30.9423 22.7315 32.305C24.0669 33.6676 25.6748 34.3489 27.528 34.3489C28.2365 34.3489 28.8906 34.2399 29.5446 34.0491C30.1987 33.8311 30.7438 33.6131 31.1253 33.3951C31.5341 33.1498 31.9429 32.8773 32.2971 32.5775C32.6514 32.2777 32.8967 32.0597 33.0057 31.9234C33.1147 31.7872 33.1965 31.7054 33.251 31.6236L31.4796 29.8522L31.0708 30.37C30.7983 30.6971 30.335 31.0241 29.6809 31.3784C28.9996 31.7327 28.291 31.8962 27.528 31.8962C26.4651 31.8962 25.5658 31.5691 24.8027 30.8878C24.0396 30.2065 23.5764 29.4162 23.4401 28.4896H33.6598ZM27.3917 23.0391C28.4 23.0391 29.2176 23.3389 29.8989 23.9112C30.553 24.5108 30.9618 25.2466 31.1253 26.1732H23.5491C23.7944 25.2466 24.2304 24.5108 24.9117 23.9112C25.5658 23.3389 26.4106 23.0391 27.3917 23.0391Z" fill="white"/>
        <path d="M46.3695 33.286C46.3695 34.4852 46.0153 35.4662 45.2794 36.2293C44.5709 36.9651 43.6715 37.3467 42.5542 37.3467C42.0637 37.3467 41.5731 37.2649 41.1098 37.1286C40.6465 36.9924 40.2922 36.8289 39.9925 36.6381C39.6927 36.4473 39.4202 36.2566 39.1476 36.0113C38.9024 35.766 38.7389 35.6025 38.6571 35.5207C38.5753 35.439 38.5208 35.3572 38.4663 35.3027L36.6949 37.0741L36.9129 37.3467C37.0492 37.5374 37.2945 37.7827 37.6215 38.0552C37.9485 38.3005 38.3301 38.573 38.7661 38.8455C39.2021 39.0908 39.7472 39.3088 40.4285 39.4996C41.1098 39.6904 41.8184 39.7994 42.5542 39.7994C44.4074 39.7994 45.9335 39.1726 47.2144 37.919C48.468 36.6381 49.0948 35.112 49.0948 33.2588V20.9952H46.3695V22.3578L45.9062 21.949C45.6065 21.6765 45.1432 21.404 44.4891 21.1314C43.8351 20.8589 43.1265 20.7227 42.4179 20.7227C40.7555 20.7227 39.3384 21.3495 38.112 22.6303C36.8857 23.9112 36.2861 25.4373 36.2861 27.2632C36.2861 29.0892 36.8857 30.6153 38.112 31.8962C39.3384 33.177 40.7555 33.8038 42.4179 33.8038C42.8812 33.8038 43.3173 33.7493 43.7806 33.6403C44.2166 33.5041 44.5709 33.3678 44.8707 33.2315C45.1704 33.0953 45.443 32.9318 45.6882 32.741C45.9335 32.5502 46.1243 32.414 46.1788 32.3595L46.3695 32.1687V33.286ZM39.0114 27.2632C39.0114 26.1186 39.3657 25.1648 40.1015 24.3745C40.8373 23.5842 41.7094 23.1754 42.6905 23.1754C43.6715 23.1754 44.5436 23.5842 45.2794 24.3745C45.988 25.1648 46.3695 26.1186 46.3695 27.2632C46.3695 28.4079 45.988 29.3617 45.2794 30.152C44.5436 30.9423 43.6715 31.3511 42.6905 31.3511C41.7094 31.3511 40.8373 30.9423 40.1015 30.152C39.3657 29.3617 39.0114 28.4079 39.0114 27.2632Z" fill="white"/>
        <path d="M63.3195 34.0764V25.6281C63.3195 24.2382 62.8017 23.0664 61.7934 22.1398C60.7851 21.1859 59.4769 20.7227 57.869 20.7227C57.2422 20.7227 56.6154 20.8044 56.0159 20.9679C55.4163 21.1587 54.9258 21.3495 54.5715 21.5675C54.2172 21.7855 53.8629 22.0308 53.5359 22.3306C53.2089 22.6031 53.0181 22.7938 52.9091 22.9029C52.8273 23.0119 52.7456 23.0936 52.6911 23.1754L54.4625 24.9468L54.8168 24.4835C55.0348 24.1837 55.4163 23.9112 55.9886 23.6114C56.5609 23.3116 57.1877 23.1754 57.869 23.1754C58.6594 23.1754 59.3134 23.4207 59.8312 23.8839C60.349 24.3472 60.5943 24.9468 60.5943 25.6281L55.8251 26.4457C54.6533 26.6364 53.6994 27.0997 53.0454 27.8356C52.364 28.5714 52.0098 29.4707 52.0098 30.5335C52.0098 31.5419 52.4458 32.414 53.3179 33.177C54.2172 33.9674 55.3073 34.3489 56.6427 34.3489C57.106 34.3489 57.542 34.2944 57.9781 34.1581C58.4413 34.0491 58.7956 33.9129 59.0954 33.7766C59.3952 33.6403 59.6677 33.4768 59.913 33.286C60.1582 33.0953 60.3218 32.959 60.4308 32.9045C60.5125 32.8228 60.567 32.741 60.5943 32.7137V34.0764H63.3195ZM57.0515 31.8962C56.3429 31.8962 55.7706 31.7327 55.3618 31.4056C54.9258 31.0786 54.735 30.6971 54.735 30.261C54.735 29.7977 54.8713 29.3889 55.1711 29.0892C55.4708 28.7894 55.8796 28.5714 56.3702 28.4896L60.5943 27.8083V28.0808C60.5943 29.3072 60.2945 30.2338 59.6677 30.9151C59.0409 31.5691 58.1688 31.8962 57.0515 31.8962Z" fill="white"/>
        <path d="M69.3337 15H66.6084V34.0767H69.3337V15Z" fill="white"/>
        <path d="M0 43.3308H0.852878V46.3211H2.70078V47.016H0V43.3308Z" fill="white"/>
        <path d="M8.26752 46.2263H6.5565L6.23009 47.016H5.35615L6.99873 43.3308H7.84108L9.48893 47.016H8.59393L8.26752 46.2263ZM7.99902 45.5788L7.41464 44.1678L6.83026 45.5788H7.99902Z" fill="white"/>
        <path d="M17.8731 43.3308L16.6675 47.016H15.7515L14.9407 44.5206L14.1036 47.016H13.1928L11.982 43.3308H12.8664L13.6982 45.921L14.5669 43.3308H15.3566L16.199 45.942L17.0571 43.3308H17.8731Z" fill="white"/>
        <path d="M26.9457 47.0792C26.5702 47.0792 26.2297 46.9985 25.9244 46.837C25.6225 46.6721 25.3838 46.4457 25.2084 46.1579C25.0364 45.8666 24.9504 45.5384 24.9504 45.1734C24.9504 44.8084 25.0364 44.482 25.2084 44.1942C25.3838 43.9028 25.6225 43.6765 25.9244 43.515C26.2297 43.3501 26.5719 43.2676 26.951 43.2676C27.2704 43.2676 27.5582 43.3237 27.8144 43.436C28.0741 43.5484 28.2917 43.7098 28.4672 43.9204L27.9197 44.4258C27.6705 44.138 27.3616 43.9941 26.9931 43.9941C26.7649 43.9941 26.5614 44.045 26.3824 44.1468C26.2034 44.2451 26.063 44.3837 25.9612 44.5627C25.8629 44.7417 25.8138 44.9453 25.8138 45.1734C25.8138 45.4015 25.8629 45.6051 25.9612 45.7841C26.063 45.9631 26.2034 46.1035 26.3824 46.2053C26.5614 46.3035 26.7649 46.3527 26.9931 46.3527C27.3616 46.3527 27.6705 46.207 27.9197 45.9157L28.4672 46.4211C28.2917 46.6352 28.0741 46.7984 27.8144 46.9107C27.5547 47.0231 27.2651 47.0792 26.9457 47.0792Z" fill="white"/>
        <path d="M33.3831 47.0792C33.0005 47.0792 32.6548 46.9967 32.3459 46.8318C32.0406 46.6668 31.8002 46.4404 31.6247 46.1526C31.4527 45.8613 31.3667 45.5349 31.3667 45.1734C31.3667 44.8119 31.4527 44.4872 31.6247 44.1994C31.8002 43.9081 32.0406 43.68 32.3459 43.515C32.6548 43.3501 33.0005 43.2676 33.3831 43.2676C33.7657 43.2676 34.1096 43.3501 34.415 43.515C34.7203 43.68 34.9607 43.9081 35.1362 44.1994C35.3117 44.4872 35.3995 44.8119 35.3995 45.1734C35.3995 45.5349 35.3117 45.8613 35.1362 46.1526C34.9607 46.4404 34.7203 46.6668 34.415 46.8318C34.1096 46.9967 33.7657 47.0792 33.3831 47.0792ZM33.3831 46.3527C33.6007 46.3527 33.7972 46.3035 33.9727 46.2053C34.1482 46.1035 34.2851 45.9631 34.3834 45.7841C34.4852 45.6051 34.5361 45.4015 34.5361 45.1734C34.5361 44.9453 34.4852 44.7417 34.3834 44.5627C34.2851 44.3837 34.1482 44.2451 33.9727 44.1468C33.7972 44.045 33.6007 43.9941 33.3831 43.9941C33.1655 43.9941 32.9689 44.045 32.7934 44.1468C32.618 44.2451 32.4793 44.3837 32.3775 44.5627C32.2793 44.7417 32.2301 44.9453 32.2301 45.1734C32.2301 45.4015 32.2793 45.6051 32.3775 45.7841C32.4793 45.9631 32.618 46.1035 32.7934 46.2053C32.9689 46.3035 33.1655 46.3527 33.3831 46.3527Z" fill="white"/>
        <path d="M42.0264 47.016L42.0211 44.8049L40.9366 46.6264H40.5523L39.473 44.8522V47.016H38.6728V43.3308H39.3782L40.7576 45.6209L42.1159 43.3308H42.8161L42.8266 47.016H42.0264Z" fill="white"/>
        <path d="M47.9285 43.3308C48.2549 43.3308 48.5374 43.3852 48.7761 43.494C49.0183 43.6028 49.2043 43.7572 49.3342 43.9573C49.464 44.1573 49.529 44.3942 49.529 44.668C49.529 44.9382 49.464 45.1751 49.3342 45.3787C49.2043 45.5788 49.0183 45.7332 48.7761 45.842C48.5374 45.9473 48.2549 45.9999 47.9285 45.9999H47.1862V47.016H46.3333V43.3308H47.9285ZM47.8811 45.305C48.1373 45.305 48.3321 45.2506 48.4655 45.1418C48.5989 45.0295 48.6656 44.8716 48.6656 44.668C48.6656 44.4609 48.5989 44.303 48.4655 44.1942C48.3321 44.0818 48.1373 44.0257 47.8811 44.0257H47.1862V45.305H47.8811Z" fill="white"/>
        <path d="M55.0121 46.2263H53.3011L52.9747 47.016H52.1008L53.7433 43.3308H54.5857L56.2335 47.016H55.3385L55.0121 46.2263ZM54.7436 45.5788L54.1592 44.1678L53.5749 45.5788H54.7436Z" fill="white"/>
        <path d="M62.6281 43.3308V47.016H61.9279L60.0906 44.7785V47.016H59.2482V43.3308H59.9537L61.7858 45.5682V43.3308H62.6281Z" fill="white"/>
        <path d="M67.9013 45.7104V47.016H67.0485V45.6999L65.6217 43.3308H66.5273L67.5117 44.9681L68.4963 43.3308H69.3333L67.9013 45.7104Z" fill="white"/>
        <path fill-rule="evenodd" clip-rule="evenodd" d="M81.7283 15H84.9505L76.5557 41H73.3335L81.7283 15Z" fill="#F0145A"/>
        <path d="M93.7502 34.1C92.8969 34.1 92.0769 33.98 91.2902 33.74C90.5169 33.4867 89.9102 33.1733 89.4702 32.8L90.1102 31.68C90.5502 32.0267 91.1035 32.3133 91.7702 32.54C92.4369 32.7533 93.1302 32.86 93.8502 32.86C94.8102 32.86 95.5169 32.7133 95.9702 32.42C96.4369 32.1133 96.6702 31.6867 96.6702 31.14C96.6702 30.7533 96.5435 30.4533 96.2902 30.24C96.0369 30.0133 95.7169 29.8467 95.3302 29.74C94.9435 29.62 94.4302 29.5067 93.7902 29.4C92.9369 29.24 92.2502 29.08 91.7302 28.92C91.2102 28.7467 90.7635 28.46 90.3902 28.06C90.0302 27.66 89.8502 27.1067 89.8502 26.4C89.8502 25.52 90.2169 24.8 90.9502 24.24C91.6835 23.68 92.7035 23.4 94.0102 23.4C94.6902 23.4 95.3702 23.4933 96.0502 23.68C96.7302 23.8533 97.2902 24.0867 97.7302 24.38L97.1102 25.52C96.2435 24.92 95.2102 24.62 94.0102 24.62C93.1035 24.62 92.4169 24.78 91.9502 25.1C91.4969 25.42 91.2702 25.84 91.2702 26.36C91.2702 26.76 91.3969 27.08 91.6502 27.32C91.9169 27.56 92.2435 27.74 92.6302 27.86C93.0169 27.9667 93.5502 28.08 94.2302 28.2C95.0702 28.36 95.7435 28.52 96.2502 28.68C96.7569 28.84 97.1902 29.1133 97.5502 29.5C97.9102 29.8867 98.0902 30.42 98.0902 31.1C98.0902 32.02 97.7035 32.7533 96.9302 33.3C96.1702 33.8333 95.1102 34.1 93.7502 34.1ZM109.875 29.18H101.075C101.155 30.2733 101.575 31.16 102.335 31.84C103.095 32.5067 104.055 32.84 105.215 32.84C105.869 32.84 106.469 32.7267 107.015 32.5C107.562 32.26 108.035 31.9133 108.435 31.46L109.235 32.38C108.769 32.94 108.182 33.3667 107.475 33.66C106.782 33.9533 106.015 34.1 105.175 34.1C104.095 34.1 103.135 33.8733 102.295 33.42C101.469 32.9533 100.822 32.3133 100.355 31.5C99.8887 30.6867 99.6554 29.7667 99.6554 28.74C99.6554 27.7133 99.8754 26.7933 100.315 25.98C100.769 25.1667 101.382 24.5333 102.155 24.08C102.942 23.6267 103.822 23.4 104.795 23.4C105.769 23.4 106.642 23.6267 107.415 24.08C108.189 24.5333 108.795 25.1667 109.235 25.98C109.675 26.78 109.895 27.7 109.895 28.74L109.875 29.18ZM104.795 24.62C103.782 24.62 102.929 24.9467 102.235 25.6C101.555 26.24 101.169 27.08 101.075 28.12H108.535C108.442 27.08 108.049 26.24 107.355 25.6C106.675 24.9467 105.822 24.62 104.795 24.62ZM114.146 25.54C114.479 24.8333 114.972 24.3 115.626 23.94C116.292 23.58 117.112 23.4 118.086 23.4V24.78L117.746 24.76C116.639 24.76 115.772 25.1 115.146 25.78C114.519 26.46 114.206 27.4133 114.206 28.64V34H112.786V23.48H114.146V25.54ZM129.946 23.48L125.266 34H123.806L119.146 23.48H120.626L124.566 32.44L128.546 23.48H129.946ZM131.946 23.48H133.366V34H131.946V23.48ZM132.666 21.18C132.372 21.18 132.126 21.08 131.926 20.88C131.726 20.68 131.626 20.44 131.626 20.16C131.626 19.8933 131.726 19.66 131.926 19.46C132.126 19.26 132.372 19.16 132.666 19.16C132.959 19.16 133.206 19.26 133.406 19.46C133.606 19.6467 133.706 19.8733 133.706 20.14C133.706 20.4333 133.606 20.68 133.406 20.88C133.206 21.08 132.959 21.18 132.666 21.18ZM141.677 34.1C140.637 34.1 139.704 33.8733 138.877 33.42C138.064 32.9667 137.424 32.3333 136.957 31.52C136.49 30.6933 136.257 29.7667 136.257 28.74C136.257 27.7133 136.49 26.7933 136.957 25.98C137.424 25.1667 138.064 24.5333 138.877 24.08C139.704 23.6267 140.637 23.4 141.677 23.4C142.584 23.4 143.39 23.58 144.097 23.94C144.817 24.2867 145.384 24.8 145.797 25.48L144.737 26.2C144.39 25.68 143.95 25.2933 143.417 25.04C142.884 24.7733 142.304 24.64 141.677 24.64C140.917 24.64 140.23 24.8133 139.617 25.16C139.017 25.4933 138.544 25.9733 138.197 26.6C137.864 27.2267 137.697 27.94 137.697 28.74C137.697 29.5533 137.864 30.2733 138.197 30.9C138.544 31.5133 139.017 31.9933 139.617 32.34C140.23 32.6733 140.917 32.84 141.677 32.84C142.304 32.84 142.884 32.7133 143.417 32.46C143.95 32.2067 144.39 31.82 144.737 31.3L145.797 32.02C145.384 32.7 144.817 33.22 144.097 33.58C143.377 33.9267 142.57 34.1 141.677 34.1ZM157.571 29.18H148.771C148.851 30.2733 149.271 31.16 150.031 31.84C150.791 32.5067 151.751 32.84 152.911 32.84C153.564 32.84 154.164 32.7267 154.711 32.5C155.257 32.26 155.731 31.9133 156.131 31.46L156.931 32.38C156.464 32.94 155.877 33.3667 155.171 33.66C154.477 33.9533 153.711 34.1 152.871 34.1C151.791 34.1 150.831 33.8733 149.991 33.42C149.164 32.9533 148.517 32.3133 148.051 31.5C147.584 30.6867 147.351 29.7667 147.351 28.74C147.351 27.7133 147.571 26.7933 148.011 25.98C148.464 25.1667 149.077 24.5333 149.851 24.08C150.637 23.6267 151.517 23.4 152.491 23.4C153.464 23.4 154.337 23.6267 155.111 24.08C155.884 24.5333 156.491 25.1667 156.931 25.98C157.371 26.78 157.591 27.7 157.591 28.74L157.571 29.18ZM152.491 24.62C151.477 24.62 150.624 24.9467 149.931 25.6C149.251 26.24 148.864 27.08 148.771 28.12H156.231C156.137 27.08 155.744 26.24 155.051 25.6C154.371 24.9467 153.517 24.62 152.491 24.62ZM163.301 34.1C162.448 34.1 161.628 33.98 160.841 33.74C160.068 33.4867 159.461 33.1733 159.021 32.8L159.661 31.68C160.101 32.0267 160.654 32.3133 161.321 32.54C161.988 32.7533 162.681 32.86 163.401 32.86C164.361 32.86 165.068 32.7133 165.521 32.42C165.988 32.1133 166.221 31.6867 166.221 31.14C166.221 30.7533 166.094 30.4533 165.841 30.24C165.588 30.0133 165.268 29.8467 164.881 29.74C164.494 29.62 163.981 29.5067 163.341 29.4C162.488 29.24 161.801 29.08 161.281 28.92C160.761 28.7467 160.314 28.46 159.941 28.06C159.581 27.66 159.401 27.1067 159.401 26.4C159.401 25.52 159.768 24.8 160.501 24.24C161.234 23.68 162.254 23.4 163.561 23.4C164.241 23.4 164.921 23.4933 165.601 23.68C166.281 23.8533 166.841 24.0867 167.281 24.38L166.661 25.52C165.794 24.92 164.761 24.62 163.561 24.62C162.654 24.62 161.968 24.78 161.501 25.1C161.048 25.42 160.821 25.84 160.821 26.36C160.821 26.76 160.948 27.08 161.201 27.32C161.468 27.56 161.794 27.74 162.181 27.86C162.568 27.9667 163.101 28.08 163.781 28.2C164.621 28.36 165.294 28.52 165.801 28.68C166.308 28.84 166.741 29.1133 167.101 29.5C167.461 29.8867 167.641 30.42 167.641 31.1C167.641 32.02 167.254 32.7533 166.481 33.3C165.721 33.8333 164.661 34.1 163.301 34.1Z" fill="white"/>
    </symbol>

    <symbol  id="facebook" viewBox="0 0 24 25" fill="none">
        <path d="M24 12.5733C24 5.90541 18.6274 0.5 12 0.5C5.37258 0.5 0 5.90541 0 12.5733C0 18.5995 4.38823 23.5943 10.125 24.5V16.0633H7.07813V12.5733H10.125V9.91343C10.125 6.88755 11.9165 5.21615 14.6576 5.21615C15.9705 5.21615 17.3438 5.45195 17.3438 5.45195V8.42313H15.8306C14.3399 8.42313 13.875 9.35379 13.875 10.3086V12.5733H17.2031L16.6711 16.0633H13.875V24.5C19.6118 23.5943 24 18.5995 24 12.5733Z" 
            fill="white"/>
    </symbol>

    <symbol id="main-logo" viewBox="0 0 697 799" fill="none">
        <g clip-path="url(#clip0_22728_11332)">
        <path fill-rule="evenodd" clip-rule="evenodd" d="M245.112 340H432.082C485.793 340 530.618 362.912 558.49 401.63C586.34 440.35 587.199 504.956 570.958 555.498L550.194 620.023C541.522 646.966 500.918 774.384 493 799H391C391 799 392.559 800.366 477.767 535.5C485.29 512.126 489.586 474.185 477.767 457.777C465.968 441.37 446.06 431.66 419.718 431.66H266.886C236.876 431.66 210.283 451.178 200.999 480.005L245.112 340Z" fill="url(#paint0_linear_22728_11332)"/>
        <path fill-rule="evenodd" clip-rule="evenodd" d="M99.3445 799H-0.369385C84.4982 532.509 170.329 266.331 255.698 0H355.276C354.856 1.33198 354.431 2.6675 353.999 4.00646C215.866 429.03 262.985 285.497 99.3445 799Z" fill="#F0145A"/>
        </g>
        <defs>
        <linearGradient id="paint0_linear_22728_11332" x1="521.823" y1="798.999" x2="268.503" y2="516.696" gradientUnits="userSpaceOnUse">
        <stop stop-color="#F0145A"/>
        <stop offset="1" stop-color="#693264"/>
        </linearGradient>
        <clipPath id="clip0_22728_11332">
        <rect width="697" height="799" fill="white"/>
        </clipPath>
        </defs>
    </symbol>

    <symbol id="scroll-btn" fill="none" viewBox="0 0 42 42">
        <circle opacity="0.5" cx="21" cy="21" r="20" stroke="currentColor" stroke-width="2"/>
        <path d="M12 18L21 27L30 18" stroke="currentColor" stroke-width="2"/>
    </symbol>

   <symbol id="blue-arrow" fill="none" viewBox="0 0 12 13">
        <path d="M3.5 2L8 6.5L3.5 11" stroke="currentColor" stroke-width="2"/>
    </symbol>

    <symbol id="icon-1" fill="none" viewBox="0 0 92 92">
        <rect width="92" height="92" rx="24" fill="white"/>
        <path d="M37.7339 42.125C38.8379 42.125 39.7339 41.229 39.7339 40.125V32.325C39.7339 28.838 42.5709 26 46.0579 26C49.5449 26 52.3829 28.838 52.3829 32.325V40.125C52.3829 41.229 53.2779 42.125 54.3829 42.125C55.4869 42.125 56.3829 41.229 56.3829 40.125V32.325C56.3839 26.632 51.7519 22 46.0579 22C40.3659 22 35.7339 26.632 35.7339 32.325V40.125C35.7339 41.229 36.6299 42.125 37.7339 42.125Z" fill="url(#paint0_linear_22728_11375)"/>
        <path d="M69 37.6328H58.384V40.1268C58.384 42.3328 56.59 44.1268 54.384 44.1268C52.178 44.1268 50.384 42.3328 50.384 40.1268V37.6328H41.735V40.1268C41.735 42.3328 39.941 44.1268 37.735 44.1268C35.529 44.1268 33.735 42.3328 33.735 40.1268V37.6328H23C22.448 37.6328 22.107 38.0678 22.238 38.6038L29.236 67.1008C29.658 68.7028 31.344 70.0018 33 70.0018H59C60.658 70.0018 62.342 68.7028 62.766 67.1008L69.762 38.6038C69.893 38.0668 69.553 37.6328 69 37.6328Z" fill="url(#paint1_linear_22728_11375)"/>
        <path d="M42.6001 48.4C42.6001 47.6265 43.2266 47 44.0001 47C44.7736 47 45.4001 47.6265 45.4001 48.4V55.35L45.4001 54C45.4001 53.2265 46.0266 52.6 46.8001 52.6C47.5736 52.6 48.2001 53.2265 48.2001 54V55.6764C48.2127 54.9141 48.8346 53.3 49.6 53.3C50.3731 53.3 50.9999 53.9268 51 54.7C51 54.7 51.0411 55.7411 51.1332 55.8033C51.3572 55.3285 51.8402 54 52.4 54C53.1732 54 53.8 54.6268 53.8 55.4V62.4C53.8 63.9463 52.5463 65.2 51 65.2H46.3198C44.8344 65.2 43.4099 64.6099 42.3599 63.5599L40.15 61.35L37 59.9402C37.0051 58.6033 38.0526 58.2 39.1 58.2C40.0023 58.2 40.8136 58.3407 42.6 59.25L42.6001 48.4Z" fill="white"/>
        <defs>
        <linearGradient id="paint0_linear_22728_11375" x1="46.0584" y1="22" x2="46.0584" y2="42.125" gradientUnits="userSpaceOnUse">
        <stop stop-color="#EF8080"/>
        <stop offset="1" stop-color="#F0145A"/>
        </linearGradient>
        <linearGradient id="paint1_linear_22728_11375" x1="46" y1="37.6328" x2="46" y2="70.0018" gradientUnits="userSpaceOnUse">
        <stop stop-color="#EF8080"/>
        <stop offset="1" stop-color="#F0145A"/>
        </linearGradient>
        </defs>
    </symbol>

    <symbol id="icon-2" fill="none" viewBox="0 0 92 92">
        <rect x="0.666748" width="92" height="92" rx="24" fill="white"/>
        <g clip-path="url(#clip0_22728_11387)">
        <path d="M75.1932 51.7273C74.5057 51.4426 73.782 51.2982 73.0421 51.2982C71.4104 51.2982 69.9031 51.9946 68.8565 53.1615L67.6365 52.6562L64.1564 51.2147C64.6502 49.5616 64.9167 47.8113 64.9167 45.9998C64.9167 44.1883 64.6501 42.4381 64.1564 40.7849L67.6365 39.3435L68.8565 38.8381C69.9031 40.0051 71.4104 40.7014 73.0421 40.7014C73.782 40.7014 74.5057 40.5571 75.1932 40.2722C78.0586 39.0852 79.4243 35.7883 78.2373 32.9227C77.3633 30.8128 75.3229 29.4493 73.0391 29.4493C72.2992 29.4493 71.5755 29.5937 70.888 29.8786C68.6297 30.814 67.3042 33.0598 67.4242 35.3722L66.1971 35.8805L62.7181 37.3215C61.028 34.208 58.4585 31.6383 55.345 29.9483L56.786 26.4694L57.2938 25.2436C57.3921 25.2487 57.4908 25.2517 57.5898 25.2517C59.8736 25.2517 61.914 23.8884 62.7881 21.7784C63.975 18.9129 62.6094 15.6159 59.7439 14.4289C59.0563 14.1444 58.3326 14 57.5928 14C55.3089 14 53.2685 15.3634 52.3944 17.4734C51.459 19.7316 52.1098 22.257 53.8298 23.8072L53.3233 25.0301L51.8818 28.5102C50.2286 28.0165 48.4784 27.7498 46.6669 27.7498C44.8554 27.7498 43.1052 28.0165 41.452 28.5102L40.0105 25.0301L39.504 23.8072C41.224 22.257 41.8748 19.7316 40.9394 17.4732C40.0653 15.3634 38.0247 14 35.7409 14C35.0011 14 34.2773 14.1444 33.5898 14.4292C30.7244 15.6162 29.3587 18.9131 30.5457 21.7787C31.4197 23.8886 33.4602 25.2521 35.7439 25.2521C35.8429 25.2521 35.9416 25.2491 36.0399 25.244L36.5477 26.4697L37.9887 29.9487C34.8752 31.6388 32.3056 34.2083 30.6156 37.3218L27.1366 35.8808L25.9094 35.3726C26.0294 33.0602 24.7039 30.8143 22.4457 29.8788C21.7582 29.5941 21.0345 29.4497 20.2946 29.4497C18.0107 29.4497 15.9703 30.8131 15.0962 32.9231C13.9093 35.7886 15.275 39.0856 18.1405 40.2726C18.828 40.5573 19.5517 40.7017 20.2916 40.7017C21.9233 40.7017 23.4306 40.0053 24.4772 38.8383L25.6972 39.3437L29.1773 40.7852C28.6834 42.4383 28.4169 44.1886 28.4169 46.0001C28.4169 47.8116 28.6836 49.5618 29.1773 51.2149L25.6971 52.6562L24.4771 53.1615C23.4304 51.9946 21.9232 51.2982 20.2915 51.2982C19.5516 51.2982 18.8278 51.4426 18.1403 51.7274C15.275 52.9144 13.9092 56.2113 15.0962 59.0769C15.9702 61.1868 18.0107 62.5503 20.2945 62.5503C21.0343 62.5503 21.7581 62.4059 22.4456 62.121C24.7038 61.1857 26.0293 58.9398 25.9093 56.6274L27.1364 56.1192L30.6154 54.6782C32.3056 57.7917 34.8751 60.3613 37.9885 62.0513L36.5476 65.5303L36.0398 66.756C35.9414 66.7509 35.8428 66.7479 35.7438 66.7479C33.4599 66.7479 31.4196 68.1113 30.5454 70.2213C29.3586 73.0868 30.7242 76.3838 33.5897 77.5708C34.2772 77.8555 35.0009 77.9999 35.7408 77.9999C38.0247 77.9999 40.065 76.6365 40.9392 74.5265C41.8745 72.2683 41.2238 69.7429 39.5038 68.1926L40.0103 66.9698L41.4518 63.4897C43.1049 63.9834 44.8552 64.25 46.6667 64.25C48.4781 64.25 50.2284 63.9834 51.8815 63.4897L53.323 66.9698L53.8295 68.1926C52.1095 69.7429 51.4588 72.2683 52.3941 74.5266C53.2681 76.6365 55.3086 78 57.5924 78C58.3323 78 59.056 77.8556 59.7435 77.5708C62.6089 76.3838 63.9746 73.0869 62.7876 70.2213C61.9136 68.1114 59.8731 66.7479 57.5894 66.7479C57.4904 66.7479 57.3918 66.7509 57.2934 66.756L56.7856 65.5303L55.3446 62.0513C58.4581 60.3612 61.0278 57.7917 62.7178 54.6782L66.1967 56.1192L67.4239 56.6274C67.3039 58.9398 68.6294 61.1857 70.8876 62.1212C71.5751 62.4059 72.2989 62.5503 73.0387 62.5503C75.3226 62.5503 77.363 61.1869 78.2371 59.0769C79.4243 56.2113 78.0588 52.9143 75.1932 51.7273ZM46.6669 60.4998C38.6717 60.4998 32.1669 53.995 32.1669 45.9998C32.1669 38.0046 38.6717 31.4998 46.6669 31.4998C54.6621 31.4998 61.1669 38.0046 61.1669 45.9998C61.1669 53.995 54.662 60.4998 46.6669 60.4998Z" fill="black"/>
        <path d="M75.1932 51.7273C74.5057 51.4426 73.782 51.2982 73.0421 51.2982C71.4104 51.2982 69.9031 51.9946 68.8565 53.1615L67.6365 52.6562L64.1564 51.2147C64.6502 49.5616 64.9167 47.8113 64.9167 45.9998C64.9167 44.1883 64.6501 42.4381 64.1564 40.7849L67.6365 39.3435L68.8565 38.8381C69.9031 40.0051 71.4104 40.7014 73.0421 40.7014C73.782 40.7014 74.5057 40.5571 75.1932 40.2722C78.0586 39.0852 79.4243 35.7883 78.2373 32.9227C77.3633 30.8128 75.3229 29.4493 73.0391 29.4493C72.2992 29.4493 71.5755 29.5937 70.888 29.8786C68.6297 30.814 67.3042 33.0598 67.4242 35.3722L66.1971 35.8805L62.7181 37.3215C61.028 34.208 58.4585 31.6383 55.345 29.9483L56.786 26.4694L57.2938 25.2436C57.3921 25.2487 57.4908 25.2517 57.5898 25.2517C59.8736 25.2517 61.914 23.8884 62.7881 21.7784C63.975 18.9129 62.6094 15.6159 59.7439 14.4289C59.0563 14.1444 58.3326 14 57.5928 14C55.3089 14 53.2685 15.3634 52.3944 17.4734C51.459 19.7316 52.1098 22.257 53.8298 23.8072L53.3233 25.0301L51.8818 28.5102C50.2286 28.0165 48.4784 27.7498 46.6669 27.7498C44.8554 27.7498 43.1052 28.0165 41.452 28.5102L40.0105 25.0301L39.504 23.8072C41.224 22.257 41.8748 19.7316 40.9394 17.4732C40.0653 15.3634 38.0247 14 35.7409 14C35.0011 14 34.2773 14.1444 33.5898 14.4292C30.7244 15.6162 29.3587 18.9131 30.5457 21.7787C31.4197 23.8886 33.4602 25.2521 35.7439 25.2521C35.8429 25.2521 35.9416 25.2491 36.0399 25.244L36.5477 26.4697L37.9887 29.9487C34.8752 31.6388 32.3056 34.2083 30.6156 37.3218L27.1366 35.8808L25.9094 35.3726C26.0294 33.0602 24.7039 30.8143 22.4457 29.8788C21.7582 29.5941 21.0345 29.4497 20.2946 29.4497C18.0107 29.4497 15.9703 30.8131 15.0962 32.9231C13.9093 35.7886 15.275 39.0856 18.1405 40.2726C18.828 40.5573 19.5517 40.7017 20.2916 40.7017C21.9233 40.7017 23.4306 40.0053 24.4772 38.8383L25.6972 39.3437L29.1773 40.7852C28.6834 42.4383 28.4169 44.1886 28.4169 46.0001C28.4169 47.8116 28.6836 49.5618 29.1773 51.2149L25.6971 52.6562L24.4771 53.1615C23.4304 51.9946 21.9232 51.2982 20.2915 51.2982C19.5516 51.2982 18.8278 51.4426 18.1403 51.7274C15.275 52.9144 13.9092 56.2113 15.0962 59.0769C15.9702 61.1868 18.0107 62.5503 20.2945 62.5503C21.0343 62.5503 21.7581 62.4059 22.4456 62.121C24.7038 61.1857 26.0293 58.9398 25.9093 56.6274L27.1364 56.1192L30.6154 54.6782C32.3056 57.7917 34.8751 60.3613 37.9885 62.0513L36.5476 65.5303L36.0398 66.756C35.9414 66.7509 35.8428 66.7479 35.7438 66.7479C33.4599 66.7479 31.4196 68.1113 30.5454 70.2213C29.3586 73.0868 30.7242 76.3838 33.5897 77.5708C34.2772 77.8555 35.0009 77.9999 35.7408 77.9999C38.0247 77.9999 40.065 76.6365 40.9392 74.5265C41.8745 72.2683 41.2238 69.7429 39.5038 68.1926L40.0103 66.9698L41.4518 63.4897C43.1049 63.9834 44.8552 64.25 46.6667 64.25C48.4781 64.25 50.2284 63.9834 51.8815 63.4897L53.323 66.9698L53.8295 68.1926C52.1095 69.7429 51.4588 72.2683 52.3941 74.5266C53.2681 76.6365 55.3086 78 57.5924 78C58.3323 78 59.056 77.8556 59.7435 77.5708C62.6089 76.3838 63.9746 73.0869 62.7876 70.2213C61.9136 68.1114 59.8731 66.7479 57.5894 66.7479C57.4904 66.7479 57.3918 66.7509 57.2934 66.756L56.7856 65.5303L55.3446 62.0513C58.4581 60.3612 61.0278 57.7917 62.7178 54.6782L66.1967 56.1192L67.4239 56.6274C67.3039 58.9398 68.6294 61.1857 70.8876 62.1212C71.5751 62.4059 72.2989 62.5503 73.0387 62.5503C75.3226 62.5503 77.363 61.1869 78.2371 59.0769C79.4243 56.2113 78.0588 52.9143 75.1932 51.7273ZM46.6669 60.4998C38.6717 60.4998 32.1669 53.995 32.1669 45.9998C32.1669 38.0046 38.6717 31.4998 46.6669 31.4998C54.6621 31.4998 61.1669 38.0046 61.1669 45.9998C61.1669 53.995 54.662 60.4998 46.6669 60.4998Z" fill="url(#paint0_linear_22728_11387)"/>
        <path d="M46.6667 35.25C40.7392 35.25 35.9167 40.0725 35.9167 46C35.9167 51.9275 40.7392 56.75 46.6667 56.75C52.5942 56.75 57.4167 51.9275 57.4167 46C57.4167 40.0725 52.5942 35.25 46.6667 35.25ZM48.5417 50.125H44.7917V41.875H48.5417V50.125Z" fill="black"/>
        <path d="M46.6667 35.25C40.7392 35.25 35.9167 40.0725 35.9167 46C35.9167 51.9275 40.7392 56.75 46.6667 56.75C52.5942 56.75 57.4167 51.9275 57.4167 46C57.4167 40.0725 52.5942 35.25 46.6667 35.25ZM48.5417 50.125H44.7917V41.875H48.5417V50.125Z" fill="url(#paint1_linear_22728_11387)"/>
        </g>
        <defs>
        <linearGradient id="paint0_linear_22728_11387" x1="46.6668" y1="14" x2="46.6668" y2="78" gradientUnits="userSpaceOnUse">
        <stop stop-color="#EF8080"/>
        <stop offset="1" stop-color="#F0145A"/>
        </linearGradient>
        <linearGradient id="paint1_linear_22728_11387" x1="46.6667" y1="35.25" x2="46.6667" y2="56.75" gradientUnits="userSpaceOnUse">
        <stop stop-color="#EF8080"/>
        <stop offset="1" stop-color="#F0145A"/>
        </linearGradient>
        <clipPath id="clip0_22728_11387">
        <rect width="64" height="64" fill="white" transform="translate(14.6667 14)"/>
        </clipPath>
        </defs>
    </symbol>

    <symbol id="icon-3" fill="none" viewBox="0 0 92 92">
        <rect x="0.333496" width="92" height="92" rx="24" fill="white"/>
        <path fill-rule="evenodd" clip-rule="evenodd" d="M67.7847 49.0781V66.3733C67.7847 69.4666 65.3604 72.0017 62.3966 72.0017H30.3036C27.3398 72.0017 24.9155 69.4666 24.9155 66.3733V49.0781H41.5816V56.5889L46.3501 59.7224L51.1186 56.5889V49.0781H67.7847Z" fill="url(#paint0_linear_22728_11381)"/>
        <path fill-rule="evenodd" clip-rule="evenodd" d="M43.252 49.0781V55.6866L46.35 57.7222L49.4481 55.6866V49.0781H43.252Z" fill="url(#paint1_linear_22728_11381)"/>
        <path fill-rule="evenodd" clip-rule="evenodd" d="M26.4069 29.1445H66.2934C68.1758 29.1445 69.7143 30.8526 69.7143 32.94V43.1931C69.7143 45.2805 68.1758 46.9886 66.2934 46.9886H50.6475H42.0529H26.4069C24.5245 46.9886 22.9861 45.2805 22.9861 43.1931V32.94C22.9861 30.8526 24.5245 29.1445 26.4069 29.1445Z" fill="url(#paint2_linear_22728_11381)"/>
        <path fill-rule="evenodd" clip-rule="evenodd" d="M38.0455 19.9531H54.655C56.1982 19.9531 57.461 21.2159 57.461 22.7591V27.1365H53.9035V24.5496C53.9035 23.8522 53.3333 23.2797 52.6359 23.2797H40.0645C39.3672 23.2797 38.797 23.8522 38.797 24.5496V27.1365H35.2395V22.7591C35.2395 21.2159 36.5023 19.9531 38.0455 19.9531Z" fill="url(#paint3_linear_22728_11381)"/>
        <defs>
        <linearGradient id="paint0_linear_22728_11381" x1="46.3501" y1="49.0781" x2="46.3501" y2="72.0017" gradientUnits="userSpaceOnUse">
        <stop stop-color="#EF8080"/>
        <stop offset="1" stop-color="#F0145A"/>
        </linearGradient>
        <linearGradient id="paint1_linear_22728_11381" x1="46.35" y1="49.0781" x2="46.35" y2="57.7222" gradientUnits="userSpaceOnUse">
        <stop stop-color="#EF8080"/>
        <stop offset="1" stop-color="#F0145A"/>
        </linearGradient>
        <linearGradient id="paint2_linear_22728_11381" x1="46.3502" y1="29.1445" x2="46.3502" y2="46.9886" gradientUnits="userSpaceOnUse">
        <stop stop-color="#EF8080"/>
        <stop offset="1" stop-color="#F0145A"/>
        </linearGradient>
        <linearGradient id="paint3_linear_22728_11381" x1="46.3502" y1="19.9531" x2="46.3502" y2="27.1365" gradientUnits="userSpaceOnUse">
        <stop stop-color="#EF8080"/>
        <stop offset="1" stop-color="#F0145A"/>
        </linearGradient>
        </defs>
    </symbol>

    <symbol id="icon-4" fill="none" viewBox="0 0 92 92">
        <rect width="92" height="92" rx="24" fill="white"/>
        <rect width="92" height="92" rx="24" fill="white"/>
        <path d="M56.0057 70H37.0057V76H56.0057V70Z" fill="black"/>
        <path d="M56.0057 70H37.0057V76H56.0057V70Z" fill="url(#paint0_linear_22728_11394)"/>
        <path d="M29.1727 16.4517L15.7377 29.8867L19.2732 33.4223L32.7083 19.9872L29.1727 16.4517Z" fill="black"/>
        <path d="M29.1727 16.4517L15.7377 29.8867L19.2732 33.4223L32.7083 19.9872L29.1727 16.4517Z" fill="url(#paint1_linear_22728_11394)"/>
        <path d="M63.1127 16.3199L59.5771 19.8555L73.0122 33.2905L76.5477 29.755L63.1127 16.3199Z" fill="black"/>
        <path d="M63.1127 16.3199L59.5771 19.8555L73.0122 33.2905L76.5477 29.755L63.1127 16.3199Z" fill="url(#paint2_linear_22728_11394)"/>
        <path d="M58.5564 23.7084L55.8651 23.5944C55.089 23.4848 54.2981 23.5571 53.5548 23.8056C52.8115 24.054 52.1361 24.4718 51.5819 25.026L46.0775 30.5305L40.3239 24.7769C39.8244 24.2888 39.2011 23.9463 38.5214 23.7861C37.8416 23.626 37.131 23.6543 36.4661 23.868C35.8388 24.0587 35.1715 24.0755 34.5355 23.9164C33.8995 23.7573 33.3186 23.4284 32.8551 22.9648L32.0012 22.1109L21.3945 32.7175L23.1225 34.4455L23.0085 37.1368C22.8989 37.9128 22.9712 38.7037 23.2197 39.447C23.4681 40.1903 23.8859 40.8657 24.4401 41.4199L34.0525 51.0324C34.181 49.7705 34.7856 48.6051 35.7432 47.7734L32.7482 44.7785L33.4553 44.0714L36.5836 47.1996C37.027 46.9472 37.5068 46.7649 38.0059 46.6591V42.9651L36.2838 41.243L36.9908 40.5358L38.0059 41.5509V36.201C37.9948 35.3168 38.3086 34.4592 38.8879 33.791C39.4672 33.1228 40.2716 32.6904 41.1485 32.576C41.4792 32.544 41.8128 32.559 42.1393 32.6208L40.9098 31.3914L41.6169 30.6843L43.4131 32.4804C43.7312 31.864 44.2233 31.3547 44.8283 31.0154C45.4333 30.6762 46.1246 30.5221 46.8165 30.5721C47.6513 30.6697 48.4258 31.0562 49.0057 31.6647C49.5855 32.2733 49.9342 33.0655 49.9913 33.9041C50.5596 33.634 51.1894 33.5194 51.8165 33.5721C52.7075 33.6788 53.5273 34.1126 54.1166 34.7895C54.7059 35.4663 55.0229 36.3379 55.0059 37.2352V40.6591C55.916 40.8491 56.7551 41.289 57.4292 41.9293C58.1032 42.5696 58.5855 43.3851 58.822 44.2842L61.6105 41.4957L62.3176 42.2029L59.0023 45.5181C59.0024 45.5319 59.0059 45.5447 59.0059 45.5585V48.8785C59.9043 48.7845 60.7437 48.3864 61.3848 47.7501L68.225 40.9099C68.7131 40.4104 69.0556 39.7871 69.2158 39.1073C69.3759 38.4276 69.3476 37.7169 69.1339 37.0521C68.9431 36.4248 68.9264 35.7575 69.0855 35.1215C69.2445 34.4854 69.5735 33.9046 70.0371 33.441L70.8909 32.5871L60.2844 21.9805L58.5564 23.7084Z" fill="black"/>
        <path d="M58.5564 23.7084L55.8651 23.5944C55.089 23.4848 54.2981 23.5571 53.5548 23.8056C52.8115 24.054 52.1361 24.4718 51.5819 25.026L46.0775 30.5305L40.3239 24.7769C39.8244 24.2888 39.2011 23.9463 38.5214 23.7861C37.8416 23.626 37.131 23.6543 36.4661 23.868C35.8388 24.0587 35.1715 24.0755 34.5355 23.9164C33.8995 23.7573 33.3186 23.4284 32.8551 22.9648L32.0012 22.1109L21.3945 32.7175L23.1225 34.4455L23.0085 37.1368C22.8989 37.9128 22.9712 38.7037 23.2197 39.447C23.4681 40.1903 23.8859 40.8657 24.4401 41.4199L34.0525 51.0324C34.181 49.7705 34.7856 48.6051 35.7432 47.7734L32.7482 44.7785L33.4553 44.0714L36.5836 47.1996C37.027 46.9472 37.5068 46.7649 38.0059 46.6591V42.9651L36.2838 41.243L36.9908 40.5358L38.0059 41.5509V36.201C37.9948 35.3168 38.3086 34.4592 38.8879 33.791C39.4672 33.1228 40.2716 32.6904 41.1485 32.576C41.4792 32.544 41.8128 32.559 42.1393 32.6208L40.9098 31.3914L41.6169 30.6843L43.4131 32.4804C43.7312 31.864 44.2233 31.3547 44.8283 31.0154C45.4333 30.6762 46.1246 30.5221 46.8165 30.5721C47.6513 30.6697 48.4258 31.0562 49.0057 31.6647C49.5855 32.2733 49.9342 33.0655 49.9913 33.9041C50.5596 33.634 51.1894 33.5194 51.8165 33.5721C52.7075 33.6788 53.5273 34.1126 54.1166 34.7895C54.7059 35.4663 55.0229 36.3379 55.0059 37.2352V40.6591C55.916 40.8491 56.7551 41.289 57.4292 41.9293C58.1032 42.5696 58.5855 43.3851 58.822 44.2842L61.6105 41.4957L62.3176 42.2029L59.0023 45.5181C59.0024 45.5319 59.0059 45.5447 59.0059 45.5585V48.8785C59.9043 48.7845 60.7437 48.3864 61.3848 47.7501L68.225 40.9099C68.7131 40.4104 69.0556 39.7871 69.2158 39.1073C69.3759 38.4276 69.3476 37.7169 69.1339 37.0521C68.9431 36.4248 68.9264 35.7575 69.0855 35.1215C69.2445 34.4854 69.5735 33.9046 70.0371 33.441L70.8909 32.5871L60.2844 21.9805L58.5564 23.7084Z" fill="url(#paint3_linear_22728_11394)"/>
        <path d="M43.8804 35.6901C43.8044 35.0405 43.476 34.4468 42.966 34.0373C42.4559 33.6278 41.8053 33.4353 41.1546 33.5015C40.5234 33.5886 39.9463 33.9046 39.5329 34.3894C39.1194 34.8742 38.8986 35.4941 38.9124 36.1311V47.4885C37.8515 47.4885 36.8341 47.9099 36.0839 48.66C35.3338 49.4102 34.9124 50.4276 34.9124 51.4885V61.1619C34.9205 61.8603 35.1189 62.5432 35.4864 63.1371C35.8538 63.7311 36.3763 64.2135 36.9976 64.5325C37.576 64.8412 38.0597 65.3012 38.3969 65.8634C38.7342 66.4256 38.9123 67.0689 38.9124 67.7245V68.9321H53.9124V66.4885L55.896 64.6661C56.5222 64.1948 57.0303 63.5844 57.3803 62.8831C57.7302 62.1818 57.9123 61.4088 57.9124 60.6251V45.4885C57.9124 44.4276 57.4909 43.4102 56.7408 42.66C55.9906 41.9099 54.9732 41.4885 53.9124 41.4885V37.1659C53.9293 36.5187 53.7062 35.888 53.286 35.3955C52.8657 34.903 52.2781 34.5834 51.6362 34.4983C51.0063 34.4426 50.3787 34.6285 49.8807 35.0183C49.3826 35.408 49.0513 35.9725 48.9539 36.5974H49.4124V52.0407H48.4124V36.5974H48.9124V34.1659C48.9293 33.5187 48.7062 32.888 48.286 32.3955C47.8657 31.903 47.2781 31.5834 46.6362 31.4983C46.2904 31.4673 45.942 31.5086 45.613 31.6196C45.2841 31.7306 44.9819 31.909 44.7256 32.1432C44.4694 32.3775 44.2647 32.6625 44.1247 32.9802C43.9847 33.2979 43.9124 33.6413 43.9124 33.9885V35.6901H44.4124V51.1335H43.4124V35.6901H43.8804ZM39.3115 56.0407H38.3115V48.0407H39.3115V56.0407ZM53.4124 41.799H54.4124V52.2423H53.4124V41.799Z" fill="black"/>
        <path d="M43.8804 35.6901C43.8044 35.0405 43.476 34.4468 42.966 34.0373C42.4559 33.6278 41.8053 33.4353 41.1546 33.5015C40.5234 33.5886 39.9463 33.9046 39.5329 34.3894C39.1194 34.8742 38.8986 35.4941 38.9124 36.1311V47.4885C37.8515 47.4885 36.8341 47.9099 36.0839 48.66C35.3338 49.4102 34.9124 50.4276 34.9124 51.4885V61.1619C34.9205 61.8603 35.1189 62.5432 35.4864 63.1371C35.8538 63.7311 36.3763 64.2135 36.9976 64.5325C37.576 64.8412 38.0597 65.3012 38.3969 65.8634C38.7342 66.4256 38.9123 67.0689 38.9124 67.7245V68.9321H53.9124V66.4885L55.896 64.6661C56.5222 64.1948 57.0303 63.5844 57.3803 62.8831C57.7302 62.1818 57.9123 61.4088 57.9124 60.6251V45.4885C57.9124 44.4276 57.4909 43.4102 56.7408 42.66C55.9906 41.9099 54.9732 41.4885 53.9124 41.4885V37.1659C53.9293 36.5187 53.7062 35.888 53.286 35.3955C52.8657 34.903 52.2781 34.5834 51.6362 34.4983C51.0063 34.4426 50.3787 34.6285 49.8807 35.0183C49.3826 35.408 49.0513 35.9725 48.9539 36.5974H49.4124V52.0407H48.4124V36.5974H48.9124V34.1659C48.9293 33.5187 48.7062 32.888 48.286 32.3955C47.8657 31.903 47.2781 31.5834 46.6362 31.4983C46.2904 31.4673 45.942 31.5086 45.613 31.6196C45.2841 31.7306 44.9819 31.909 44.7256 32.1432C44.4694 32.3775 44.2647 32.6625 44.1247 32.9802C43.9847 33.2979 43.9124 33.6413 43.9124 33.9885V35.6901H44.4124V51.1335H43.4124V35.6901H43.8804ZM39.3115 56.0407H38.3115V48.0407H39.3115V56.0407ZM53.4124 41.799H54.4124V52.2423H53.4124V41.799Z" fill="url(#paint4_linear_22728_11394)"/>
        <defs>
        <linearGradient id="paint0_linear_22728_11394" x1="46.5057" y1="70" x2="46.5057" y2="76" gradientUnits="userSpaceOnUse">
        <stop stop-color="#EF8080"/>
        <stop offset="1" stop-color="#F0145A"/>
        </linearGradient>
        <linearGradient id="paint1_linear_22728_11394" x1="22.4552" y1="23.1692" x2="25.9907" y2="26.7047" gradientUnits="userSpaceOnUse">
        <stop stop-color="#EF8080"/>
        <stop offset="1" stop-color="#F0145A"/>
        </linearGradient>
        <linearGradient id="paint2_linear_22728_11394" x1="61.3449" y1="18.0877" x2="74.78" y2="31.5228" gradientUnits="userSpaceOnUse">
        <stop stop-color="#EF8080"/>
        <stop offset="1" stop-color="#F0145A"/>
        </linearGradient>
        <linearGradient id="paint3_linear_22728_11394" x1="46.1427" y1="21.9805" x2="46.1427" y2="51.0324" gradientUnits="userSpaceOnUse">
        <stop stop-color="#EF8080"/>
        <stop offset="1" stop-color="#F0145A"/>
        </linearGradient>
        <linearGradient id="paint4_linear_22728_11394" x1="46.4124" y1="31.4883" x2="46.4124" y2="68.9321" gradientUnits="userSpaceOnUse">
        <stop stop-color="#EF8080"/>
        <stop offset="1" stop-color="#F0145A"/>
        </linearGradient>
        </defs>
    </symbol>

    <symbol id="icon-5" fill="none" viewBox="0 0 92 92">
        <rect x="0.333496" width="92" height="92" rx="24" fill="white"/>
        <path d="M55.5652 51.6961C57.9174 51.6961 60.2431 52.2844 62.2912 53.3974C62.6631 53.5979 63.0044 53.8368 63.3529 54.0667C66.7142 47.4869 68.488 40.5278 68.488 33.7388C68.488 33.3573 68.488 32.9634 68.4758 32.5696C68.4512 32.0158 68.0573 31.5358 67.5034 31.4127C60.0696 29.7881 53.3373 25.7634 48.045 19.7819L47.2573 18.8834C47.0234 18.6127 46.6912 18.465 46.3342 18.465C45.9527 18.4158 45.6573 18.6004 45.4234 18.8589L44.2173 20.1881C39.1958 25.7142 32.8696 29.5296 25.9281 31.2281L25.1281 31.425C24.5865 31.5481 24.205 32.0281 24.1927 32.5819C23.7496 49.8865 33.965 62.3296 38.3712 66.8834C39.5641 68.1082 40.8941 69.3256 42.1588 70.3319C41.6844 68.9011 41.4113 67.3957 41.4113 65.8499C41.4113 58.0452 47.7605 51.6961 55.5652 51.6961Z" fill="url(#paint0_linear_22728_11400)"/>
        <path d="M61.1156 55.5593C59.4172 54.6363 57.4972 54.1562 55.5649 54.1562C49.1156 54.1562 43.8726 59.3993 43.8726 65.8486C43.8726 68.027 44.4634 70.1562 45.5957 71.9778C47.7495 75.4609 51.4665 77.5409 55.5649 77.5409C62.0018 77.5409 67.2572 72.2978 67.2572 65.8486C67.2572 61.5409 64.9064 57.6024 61.1156 55.5593ZM61.5531 64.2918L52.4082 71.4084L49.2862 66.5249C48.9197 65.9522 49.0873 65.1914 49.66 64.8254C50.2334 64.4588 50.9948 64.6277 51.3596 65.1992L53.0272 67.8074L60.0411 62.3495C60.5765 61.9318 61.3505 62.0273 61.7682 62.5646C62.1859 63.1013 62.0891 63.8747 61.5531 64.2918Z" fill="url(#paint1_linear_22728_11400)"/>
        <defs>
        <linearGradient id="paint0_linear_22728_11400" x1="46.3334" y1="18.457" x2="46.3334" y2="70.3319" gradientUnits="userSpaceOnUse">
        <stop stop-color="#EF8080"/>
        <stop offset="1" stop-color="#F0145A"/>
        </linearGradient>
        <linearGradient id="paint1_linear_22728_11400" x1="55.5649" y1="54.1562" x2="55.5649" y2="77.5409" gradientUnits="userSpaceOnUse">
        <stop stop-color="#EF8080"/>
        <stop offset="1" stop-color="#F0145A"/>
        </linearGradient>
        </defs>
    </symbol>

    <symbol id="icon-6" fill="none" viewBox="0 0 92 92">
        <rect x="0.666748" width="92" height="92" rx="24" fill="white"/>
        <path d="M55.0187 34.389C55.7507 35.121 56.9367 35.123 57.6687 34.389L60.2767 31.781C61.0077 31.049 61.0057 29.863 60.2767 29.13L53.6937 22.549C52.9637 21.817 51.7777 21.817 51.0457 22.549L48.4367 25.157C47.7067 25.889 47.7067 27.075 48.4367 27.805L55.0187 34.389Z" fill="url(#paint0_linear_22728_11406)"/>
        <path d="M39.4328 50.2652C40.1638 50.9942 41.3498 50.9942 42.0808 50.2652L44.6898 47.6553C45.4218 46.9253 45.4218 45.7383 44.6898 45.0063L38.1068 38.4233C37.3758 37.6933 36.1898 37.6913 35.4578 38.4233L32.8498 41.0312C32.1178 41.7632 32.1198 42.9492 32.8498 43.6812L39.4328 50.2652Z" fill="url(#paint1_linear_22728_11406)"/>
        <path d="M69.3149 50.8912L66.6679 48.2412C65.9339 47.5112 64.7509 47.5112 64.0199 48.2412L62.8589 49.4012L51.6539 38.1942L54.0809 35.7662L47.3479 29.0352L44.9199 31.4632L41.8279 34.5532L39.4539 36.9272L46.1859 43.6602L48.5629 41.2872L59.7659 52.4922L58.7179 53.5412C57.9859 54.2702 57.9839 55.4572 58.7179 56.1892L61.3649 58.8372C62.0989 59.5712 63.2839 59.5712 64.0149 58.8372L69.3139 53.5402C70.0469 52.8072 70.0469 51.6232 69.3149 50.8912Z" fill="url(#paint2_linear_22728_11406)"/>
        <path d="M49.7437 58.9425C49.7437 57.7435 48.7717 56.7695 47.5707 56.7695H30.6027C29.4027 56.7695 28.4297 57.7435 28.4297 58.9425V62.4695H23.6667V69.8585H54.2247V62.4695H49.7437V58.9425Z" fill="url(#paint3_linear_22728_11406)"/>
        <defs>
        <linearGradient id="paint0_linear_22728_11406" x1="54.3567" y1="22" x2="54.3567" y2="34.9388" gradientUnits="userSpaceOnUse">
        <stop stop-color="#EF8080"/>
        <stop offset="1" stop-color="#F0145A"/>
        </linearGradient>
        <linearGradient id="paint1_linear_22728_11406" x1="38.7701" y1="37.875" x2="38.7701" y2="50.812" gradientUnits="userSpaceOnUse">
        <stop stop-color="#EF8080"/>
        <stop offset="1" stop-color="#F0145A"/>
        </linearGradient>
        <linearGradient id="paint2_linear_22728_11406" x1="54.6588" y1="29.0352" x2="54.6588" y2="59.3877" gradientUnits="userSpaceOnUse">
        <stop stop-color="#EF8080"/>
        <stop offset="1" stop-color="#F0145A"/>
        </linearGradient>
        <linearGradient id="paint3_linear_22728_11406" x1="38.9457" y1="56.7695" x2="38.9457" y2="69.8585" gradientUnits="userSpaceOnUse">
        <stop stop-color="#EF8080"/>
        <stop offset="1" stop-color="#F0145A"/>
        </linearGradient>
        </defs>
    </symbol>

    <symbol id="blue-facebook" viewBox="0 0 38 38">
        <g clip-path="url(#clip0_155432_2564)">
        <path d="M38 19.1161C38 8.55857 29.4934 0 19 0C8.50658 0 0 8.55857 0 19.1161C0 28.6575 6.94803 36.5659 16.0312 38V24.6419H11.207V19.1161H16.0312V14.9046C16.0312 10.1136 18.8678 7.46723 23.2078 7.46723C25.2866 7.46723 27.4609 7.84059 27.4609 7.84059V12.545H25.0651C22.7048 12.545 21.9688 14.0185 21.9688 15.5302V19.1161H27.2383L26.3959 24.6419H21.9688V38C31.052 36.5659 38 28.6575 38 19.1161Z" fill="#24A3FF"/>
        </g>
        <defs>
        <clipPath id="clip0_155432_2564">
        <rect width="38" height="38" fill="white"/>
        </clipPath>
        </defs>
    </symbol>



    <symbol id="publication-logo" viewBox="0 0 382 60" fill="none">
        <g clip-path="url(#clip0_155432_1917)">
        <path d="M4.95672 0H0V35.7986H4.95672V22.5177C4.95672 20.2709 5.51557 18.4984 6.63326 17.2502C7.75095 16.002 9.2817 15.353 11.1769 15.353C12.8049 15.353 14.1655 15.9521 15.2589 17.1004C16.3523 18.2738 16.9112 19.7466 16.9112 21.5191V35.8236H21.8922V21.5191C21.8922 18.2238 20.9932 15.6276 19.1951 13.6804C17.3971 11.7332 15.0402 10.7596 12.1731 10.7596C11.347 10.7596 10.5209 10.8594 9.71906 11.0841C8.89294 11.3088 8.2369 11.5584 7.70235 11.833C7.16781 12.1076 6.65756 12.4072 6.1959 12.7567C5.73424 13.1062 5.41838 13.3558 5.27259 13.5056C5.1268 13.6554 5.00532 13.7552 4.95672 13.8301V0Z" fill="#F0145A"/>
        <path d="M32.9726 0H27.8628V35.7689H32.9726V0Z" fill="#323264"/>
        <path d="M63.1114 25.2935L63.3669 22.7386C63.3669 19.315 62.2428 16.4535 59.9433 14.1541C57.6439 11.8546 54.7824 10.7305 51.3588 10.7305C47.9352 10.7305 44.9715 11.9568 42.5188 14.4096C40.0661 16.8623 38.8397 19.7749 38.8397 23.2496C38.8397 26.8265 40.1172 29.8924 42.621 32.4473C45.1248 35.0022 48.1396 36.2797 51.6143 36.2797C52.9429 36.2797 54.1692 36.0753 55.3956 35.7176C56.6219 35.3088 57.6439 34.9 58.3593 34.4912C59.1258 34.0313 59.8922 33.5204 60.5565 32.9583C61.2208 32.3962 61.6807 31.9874 61.8851 31.7319C62.0895 31.4764 62.2428 31.3231 62.345 31.1698L59.0236 27.8484L58.2571 28.8193C57.7461 29.4325 56.8774 30.0457 55.6511 30.7099C54.3736 31.3742 53.0451 31.6808 51.6143 31.6808C49.6215 31.6808 47.9352 31.0676 46.5045 29.7902C45.0737 28.5127 44.205 27.0309 43.9495 25.2935H63.1114ZM51.3588 15.0738C53.2494 15.0738 54.7824 15.6359 56.0599 16.709C57.2862 17.8331 58.0527 19.2128 58.3593 20.9501H44.1539C44.6138 19.2128 45.4314 17.8331 46.7089 16.709C47.9352 15.6359 49.5193 15.0738 51.3588 15.0738Z" fill="#323264"/>
        <path d="M86.9429 34.2868C86.9429 36.5351 86.2786 38.3747 84.8989 39.8054C83.5704 41.1851 81.8841 41.9005 79.7891 41.9005C78.8693 41.9005 77.9496 41.7472 77.0809 41.4917C76.2122 41.2362 75.5479 40.9296 74.9859 40.5719C74.4238 40.2142 73.9128 39.8565 73.4018 39.3967C72.9419 38.9368 72.6353 38.6302 72.482 38.4769C72.3287 38.3236 72.2265 38.1703 72.1244 38.0681L68.803 41.3895L69.2117 41.9005C69.4672 42.2582 69.9271 42.718 70.5403 43.229C71.1535 43.6889 71.8689 44.1999 72.6864 44.7109C73.504 45.1708 74.526 45.5796 75.8034 45.9372C77.0809 46.2949 78.4094 46.4993 79.7891 46.4993C83.2638 46.4993 86.1253 45.3241 88.5269 42.9735C90.8774 40.5719 92.0527 37.7104 92.0527 34.2357V11.2415H86.9429V13.7964L86.0742 13.0299C85.5121 12.5189 84.6434 12.0079 83.4171 11.4969C82.1907 10.986 80.8622 10.7305 79.5336 10.7305C76.4166 10.7305 73.7595 11.9057 71.4601 14.3074C69.1606 16.709 68.0365 19.5705 68.0365 22.9941C68.0365 26.4177 69.1606 29.2792 71.4601 31.6808C73.7595 34.0824 76.4166 35.2577 79.5336 35.2577C80.4023 35.2577 81.2199 35.1555 82.0885 34.9511C82.9061 34.6956 83.5704 34.4401 84.1325 34.1846C84.6945 33.9291 85.2055 33.6225 85.6654 33.2648C86.1253 32.9072 86.483 32.6517 86.5852 32.5495L86.9429 32.1918V34.2868ZM73.1463 22.9941C73.1463 20.8479 73.8106 19.0595 75.1903 17.5777C76.5699 16.0958 78.2051 15.3293 80.0446 15.3293C81.8841 15.3293 83.5193 16.0958 84.8989 17.5777C86.2275 19.0595 86.9429 20.8479 86.9429 22.9941C86.9429 25.1402 86.2275 26.9287 84.8989 28.4105C83.5193 29.8924 81.8841 30.6588 80.0446 30.6588C78.2051 30.6588 76.5699 29.8924 75.1903 28.4105C73.8106 26.9287 73.1463 25.1402 73.1463 22.9941Z" fill="#323264"/>
        <path d="M118.724 35.7687V19.9282C118.724 17.3222 117.753 15.1249 115.863 13.3876C113.972 11.5991 111.519 10.7305 108.504 10.7305C107.329 10.7305 106.154 10.8838 105.03 11.1904C103.906 11.548 102.986 11.9057 102.321 12.3145C101.657 12.7233 100.993 13.1832 100.38 13.7453C99.7666 14.2563 99.4089 14.6139 99.2045 14.8183C99.0512 15.0227 98.8979 15.176 98.7957 15.3293L102.117 18.6507L102.781 17.782C103.19 17.22 103.906 16.709 104.979 16.1469C106.052 15.5848 107.227 15.3293 108.504 15.3293C109.986 15.3293 111.213 15.7892 112.183 16.6579C113.154 17.5266 113.614 18.6507 113.614 19.9282L104.672 21.4611C102.475 21.8188 100.686 22.6875 99.46 24.0672C98.1825 25.4468 97.5182 27.1331 97.5182 29.1259C97.5182 31.0165 98.3358 32.6517 99.971 34.0824C101.657 35.5643 103.701 36.2797 106.205 36.2797C107.074 36.2797 107.891 36.1775 108.709 35.922C109.577 35.7176 110.242 35.4621 110.804 35.2066C111.366 34.9511 111.877 34.6445 112.337 34.2868C112.797 33.9291 113.103 33.6736 113.308 33.5715C113.461 33.4182 113.563 33.2649 113.614 33.2138V35.7687H118.724ZM106.971 31.6808C105.643 31.6808 104.57 31.3742 103.803 30.761C102.986 30.1479 102.628 29.4325 102.628 28.6149C102.628 27.7462 102.884 26.9798 103.446 26.4177C104.008 25.8556 104.774 25.4468 105.694 25.2935L113.614 24.0161V24.527C113.614 26.8265 113.052 28.5638 111.877 29.8413C110.702 31.0676 109.066 31.6808 106.971 31.6808Z" fill="#323264"/>
        <path d="M130 0H124.89V35.7689H130V0Z" fill="#323264"/>
        <path d="M0 53.1185H1.59915V58.7253H5.06396V60.0283H0V53.1185Z" fill="#323264"/>
        <path d="M15.5016 58.5477H12.2934L11.6814 60.0283H10.0428L13.1226 53.1185H14.702L17.7917 60.0283H16.1136L15.5016 58.5477ZM14.9982 57.3335L13.9025 54.688L12.8067 57.3335H14.9982Z" fill="#323264"/>
        <path d="M33.5121 53.1185L31.2516 60.0283H29.534L28.0138 55.3494L26.4443 60.0283H24.7366L22.4662 53.1185H24.1245L25.6842 57.9751L27.313 53.1185H28.7937L30.3731 58.0146L31.9821 53.1185H33.5121Z" fill="#323264"/>
        <path d="M50.5232 60.1468C49.819 60.1468 49.1807 59.9954 48.6082 59.6927C48.0422 59.3834 47.5947 58.959 47.2657 58.4193C46.9432 57.8731 46.782 57.2578 46.782 56.5734C46.782 55.889 46.9432 55.277 47.2657 54.7373C47.5947 54.1911 48.0422 53.7667 48.6082 53.464C49.1807 53.1547 49.8223 53 50.5331 53C51.1319 53 51.6716 53.1053 52.152 53.3159C52.6389 53.5265 53.047 53.8292 53.376 54.224L52.3494 55.1717C51.8821 54.6321 51.303 54.3622 50.612 54.3622C50.1843 54.3622 49.8026 54.4577 49.467 54.6485C49.1313 54.8328 48.8681 55.0927 48.6773 55.4283C48.493 55.764 48.4009 56.1456 48.4009 56.5734C48.4009 57.0012 48.493 57.3828 48.6773 57.7185C48.8681 58.0541 49.1313 58.3173 49.467 58.5082C49.8026 58.6924 50.1843 58.7846 50.612 58.7846C51.303 58.7846 51.8821 58.5115 52.3494 57.9653L53.376 58.9129C53.047 59.3143 52.6389 59.6203 52.152 59.8309C51.665 60.0415 51.1221 60.1468 50.5232 60.1468Z" fill="#323264"/>
        <path d="M62.5933 60.1468C61.876 60.1468 61.2278 59.9922 60.6487 59.6829C60.0761 59.3736 59.6253 58.9491 59.2963 58.4095C58.9738 57.8632 58.8126 57.2512 58.8126 56.5734C58.8126 55.8956 58.9738 55.2868 59.2963 54.7472C59.6253 54.201 60.0761 53.7733 60.6487 53.464C61.2278 53.1547 61.876 53 62.5933 53C63.3106 53 63.9555 53.1547 64.5281 53.464C65.1006 53.7733 65.5514 54.201 65.8804 54.7472C66.2095 55.2868 66.374 55.8956 66.374 56.5734C66.374 57.2512 66.2095 57.8632 65.8804 58.4095C65.5514 58.9491 65.1006 59.3736 64.5281 59.6829C63.9555 59.9922 63.3106 60.1468 62.5933 60.1468ZM62.5933 58.7846C63.0013 58.7846 63.3698 58.6924 63.6989 58.5082C64.0279 58.3173 64.2846 58.0541 64.4688 57.7185C64.6597 57.3828 64.7551 57.0012 64.7551 56.5734C64.7551 56.1456 64.6597 55.764 64.4688 55.4283C64.2846 55.0927 64.0279 54.8328 63.6989 54.6485C63.3698 54.4577 63.0013 54.3622 62.5933 54.3622C62.1853 54.3622 61.8168 54.4577 61.4877 54.6485C61.1587 54.8328 60.8987 55.0927 60.7079 55.4283C60.5236 55.764 60.4315 56.1456 60.4315 56.5734C60.4315 57.0012 60.5236 57.3828 60.7079 57.7185C60.8987 58.0541 61.1587 58.3173 61.4877 58.5082C61.8168 58.6924 62.1853 58.7846 62.5933 58.7846Z" fill="#323264"/>
        <path d="M78.7995 60.0283L78.7896 55.8824L76.7561 59.2979H76.0355L74.0119 55.9713V60.0283H72.5115V53.1185H73.8342L76.4205 57.4125L78.9673 53.1185H80.2802L80.2999 60.0283H78.7995Z" fill="#323264"/>
        <path d="M89.8659 53.1185C90.478 53.1185 91.0077 53.2205 91.4552 53.4245C91.9093 53.6285 92.2581 53.918 92.5016 54.2931C92.7451 54.6682 92.8668 55.1125 92.8668 55.6258C92.8668 56.1325 92.7451 56.5767 92.5016 56.9584C92.2581 57.3335 91.9093 57.623 91.4552 57.8271C91.0077 58.0245 90.478 58.1232 89.8659 58.1232H88.4741V60.0283H86.8749V53.1185H89.8659ZM89.7771 56.8202C90.2575 56.8202 90.6227 56.7182 90.8728 56.5142C91.1229 56.3036 91.2479 56.0074 91.2479 55.6258C91.2479 55.2375 91.1229 54.9414 90.8728 54.7373C90.6227 54.5268 90.2575 54.4215 89.7771 54.4215H88.4741V56.8202H89.7771Z" fill="#323264"/>
        <path d="M103.148 58.5477H99.9396L99.3276 60.0283H97.6889L100.769 53.1185H102.348L105.438 60.0283H103.76L103.148 58.5477ZM102.644 57.3335L101.549 54.688L100.453 57.3335H102.644Z" fill="#323264"/>
        <path d="M117.428 53.1185V60.0283H116.115L112.67 55.8331V60.0283H111.09V53.1185H112.413L115.848 57.3137V53.1185H117.428Z" fill="#323264"/>
        <path d="M127.315 57.5803V60.0283H125.716V57.5605L123.041 53.1185H124.739L126.585 56.1884L128.43 53.1185H130L127.315 57.5803Z" fill="#323264"/>
        <path fill-rule="evenodd" clip-rule="evenodd" d="M149.175 0H155L139.825 47H134L149.175 0Z" fill="#F0145A"/>
        <path d="M172.32 15.92C174.096 15.92 175.704 16.328 177.144 17.144C178.584 17.936 179.712 19.064 180.528 20.528C181.344 21.992 181.752 23.66 181.752 25.532C181.752 27.428 181.344 29.108 180.528 30.572C179.712 32.036 178.584 33.176 177.144 33.992C175.728 34.784 174.12 35.18 172.32 35.18C170.784 35.18 169.392 34.868 168.144 34.244C166.92 33.596 165.912 32.66 165.12 31.436V41.984H162.564V16.064H165.012V19.808C165.78 18.56 166.788 17.6 168.036 16.928C169.308 16.256 170.736 15.92 172.32 15.92ZM172.14 32.912C173.46 32.912 174.66 32.612 175.74 32.012C176.82 31.388 177.66 30.512 178.26 29.384C178.884 28.256 179.196 26.972 179.196 25.532C179.196 24.092 178.884 22.82 178.26 21.716C177.66 20.588 176.82 19.712 175.74 19.088C174.66 18.464 173.46 18.152 172.14 18.152C170.796 18.152 169.584 18.464 168.504 19.088C167.448 19.712 166.608 20.588 165.984 21.716C165.384 22.82 165.084 24.092 165.084 25.532C165.084 26.972 165.384 28.256 165.984 29.384C166.608 30.512 167.448 31.388 168.504 32.012C169.584 32.612 170.796 32.912 172.14 32.912ZM204.026 16.064V35H201.578V31.544C200.906 32.696 199.982 33.596 198.806 34.244C197.63 34.868 196.286 35.18 194.774 35.18C192.302 35.18 190.346 34.496 188.906 33.128C187.49 31.736 186.782 29.708 186.782 27.044V16.064H189.338V26.792C189.338 28.784 189.83 30.296 190.814 31.328C191.798 32.36 193.202 32.876 195.026 32.876C197.018 32.876 198.59 32.276 199.742 31.076C200.894 29.852 201.47 28.16 201.47 26V16.064H204.026ZM220.941 15.92C222.717 15.92 224.325 16.328 225.765 17.144C227.205 17.936 228.333 19.064 229.149 20.528C229.965 21.992 230.373 23.66 230.373 25.532C230.373 27.404 229.965 29.072 229.149 30.536C228.333 32 227.205 33.14 225.765 33.956C224.325 34.772 222.717 35.18 220.941 35.18C219.357 35.18 217.929 34.844 216.657 34.172C215.409 33.5 214.401 32.528 213.633 31.256V35H211.185V8.288H213.741V19.664C214.533 18.44 215.541 17.516 216.765 16.892C218.013 16.244 219.405 15.92 220.941 15.92ZM220.761 32.912C222.081 32.912 223.281 32.612 224.361 32.012C225.441 31.388 226.281 30.512 226.881 29.384C227.505 28.256 227.817 26.972 227.817 25.532C227.817 24.092 227.505 22.808 226.881 21.68C226.281 20.552 225.441 19.688 224.361 19.088C223.281 18.464 222.081 18.152 220.761 18.152C219.417 18.152 218.205 18.464 217.125 19.088C216.069 19.688 215.229 20.552 214.605 21.68C214.005 22.808 213.705 24.092 213.705 25.532C213.705 26.972 214.005 28.256 214.605 29.384C215.229 30.512 216.069 31.388 217.125 32.012C218.205 32.612 219.417 32.912 220.761 32.912ZM235.584 8.288H238.14V35H235.584V8.288ZM245.252 16.064H247.808V35H245.252V16.064ZM246.548 11.924C246.02 11.924 245.576 11.744 245.216 11.384C244.856 11.024 244.676 10.592 244.676 10.088C244.676 9.608 244.856 9.188 245.216 8.828C245.576 8.468 246.02 8.288 246.548 8.288C247.076 8.288 247.52 8.468 247.88 8.828C248.24 9.164 248.42 9.572 248.42 10.052C248.42 10.58 248.24 11.024 247.88 11.384C247.52 11.744 247.076 11.924 246.548 11.924ZM262.767 35.18C260.895 35.18 259.215 34.772 257.727 33.956C256.263 33.14 255.111 32 254.271 30.536C253.431 29.048 253.011 27.38 253.011 25.532C253.011 23.684 253.431 22.028 254.271 20.564C255.111 19.1 256.263 17.96 257.727 17.144C259.215 16.328 260.895 15.92 262.767 15.92C264.399 15.92 265.851 16.244 267.123 16.892C268.419 17.516 269.439 18.44 270.183 19.664L268.275 20.96C267.651 20.024 266.859 19.328 265.899 18.872C264.939 18.392 263.895 18.152 262.767 18.152C261.399 18.152 260.163 18.464 259.059 19.088C257.979 19.688 257.127 20.552 256.503 21.68C255.903 22.808 255.603 24.092 255.603 25.532C255.603 26.996 255.903 28.292 256.503 29.42C257.127 30.524 257.979 31.388 259.059 32.012C260.163 32.612 261.399 32.912 262.767 32.912C263.895 32.912 264.939 32.684 265.899 32.228C266.859 31.772 267.651 31.076 268.275 30.14L270.183 31.436C269.439 32.66 268.419 33.596 267.123 34.244C265.827 34.868 264.375 35.18 262.767 35.18ZM281.829 15.92C284.301 15.92 286.197 16.544 287.517 17.792C288.837 19.016 289.497 20.84 289.497 23.264V35H287.049V32.048C286.473 33.032 285.621 33.8 284.493 34.352C283.389 34.904 282.069 35.18 280.533 35.18C278.421 35.18 276.741 34.676 275.493 33.668C274.245 32.66 273.621 31.328 273.621 29.672C273.621 28.064 274.197 26.768 275.349 25.784C276.525 24.8 278.385 24.308 280.929 24.308H286.941V23.156C286.941 21.524 286.485 20.288 285.573 19.448C284.661 18.584 283.329 18.152 281.577 18.152C280.377 18.152 279.225 18.356 278.121 18.764C277.017 19.148 276.069 19.688 275.277 20.384L274.125 18.476C275.085 17.66 276.237 17.036 277.581 16.604C278.925 16.148 280.341 15.92 281.829 15.92ZM280.929 33.164C282.369 33.164 283.605 32.84 284.637 32.192C285.669 31.52 286.437 30.56 286.941 29.312V26.216H281.001C277.761 26.216 276.141 27.344 276.141 29.6C276.141 30.704 276.561 31.58 277.401 32.228C278.241 32.852 279.417 33.164 280.929 33.164ZM306.411 33.848C305.931 34.28 305.331 34.616 304.611 34.856C303.915 35.072 303.183 35.18 302.415 35.18C300.639 35.18 299.271 34.7 298.311 33.74C297.351 32.78 296.871 31.424 296.871 29.672V18.224H293.487V16.064H296.871V11.924H299.427V16.064H305.187V18.224H299.427V29.528C299.427 30.656 299.703 31.52 300.255 32.12C300.831 32.696 301.647 32.984 302.703 32.984C303.231 32.984 303.735 32.9 304.215 32.732C304.719 32.564 305.151 32.324 305.511 32.012L306.411 33.848ZM311.064 16.064H313.62V35H311.064V16.064ZM312.36 11.924C311.832 11.924 311.388 11.744 311.028 11.384C310.668 11.024 310.488 10.592 310.488 10.088C310.488 9.608 310.668 9.188 311.028 8.828C311.388 8.468 311.832 8.288 312.36 8.288C312.888 8.288 313.332 8.468 313.692 8.828C314.052 9.164 314.232 9.572 314.232 10.052C314.232 10.58 314.052 11.024 313.692 11.384C313.332 11.744 312.888 11.924 312.36 11.924ZM328.472 35.18C326.648 35.18 325.004 34.772 323.54 33.956C322.076 33.116 320.924 31.964 320.084 30.5C319.244 29.036 318.824 27.38 318.824 25.532C318.824 23.684 319.244 22.028 320.084 20.564C320.924 19.1 322.076 17.96 323.54 17.144C325.004 16.328 326.648 15.92 328.472 15.92C330.296 15.92 331.94 16.328 333.404 17.144C334.868 17.96 336.008 19.1 336.824 20.564C337.664 22.028 338.084 23.684 338.084 25.532C338.084 27.38 337.664 29.036 336.824 30.5C336.008 31.964 334.868 33.116 333.404 33.956C331.94 34.772 330.296 35.18 328.472 35.18ZM328.472 32.912C329.816 32.912 331.016 32.612 332.072 32.012C333.152 31.388 333.992 30.512 334.592 29.384C335.192 28.256 335.492 26.972 335.492 25.532C335.492 24.092 335.192 22.808 334.592 21.68C333.992 20.552 333.152 19.688 332.072 19.088C331.016 18.464 329.816 18.152 328.472 18.152C327.128 18.152 325.916 18.464 324.836 19.088C323.78 19.688 322.94 20.552 322.316 21.68C321.716 22.808 321.416 24.092 321.416 25.532C321.416 26.972 321.716 28.256 322.316 29.384C322.94 30.512 323.78 31.388 324.836 32.012C325.916 32.612 327.128 32.912 328.472 32.912ZM352.95 15.92C355.326 15.92 357.21 16.616 358.602 18.008C360.018 19.376 360.726 21.38 360.726 24.02V35H358.17V24.272C358.17 22.304 357.678 20.804 356.694 19.772C355.71 18.74 354.306 18.224 352.482 18.224C350.442 18.224 348.822 18.836 347.622 20.06C346.446 21.26 345.858 22.928 345.858 25.064V35H343.302V16.064H345.75V19.556C346.446 18.404 347.406 17.516 348.63 16.892C349.878 16.244 351.318 15.92 352.95 15.92ZM372.742 35.18C371.206 35.18 369.73 34.964 368.314 34.532C366.922 34.076 365.83 33.512 365.038 32.84L366.19 30.824C366.982 31.448 367.978 31.964 369.178 32.372C370.378 32.756 371.626 32.948 372.922 32.948C374.65 32.948 375.922 32.684 376.738 32.156C377.578 31.604 377.998 30.836 377.998 29.852C377.998 29.156 377.77 28.616 377.314 28.232C376.858 27.824 376.282 27.524 375.586 27.332C374.89 27.116 373.966 26.912 372.814 26.72C371.278 26.432 370.042 26.144 369.106 25.856C368.17 25.544 367.366 25.028 366.694 24.308C366.046 23.588 365.722 22.592 365.722 21.32C365.722 19.736 366.382 18.44 367.702 17.432C369.022 16.424 370.858 15.92 373.21 15.92C374.434 15.92 375.658 16.088 376.882 16.424C378.106 16.736 379.114 17.156 379.906 17.684L378.79 19.736C377.23 18.656 375.37 18.116 373.21 18.116C371.578 18.116 370.342 18.404 369.502 18.98C368.686 19.556 368.278 20.312 368.278 21.248C368.278 21.968 368.506 22.544 368.962 22.976C369.442 23.408 370.03 23.732 370.726 23.948C371.422 24.14 372.382 24.344 373.606 24.56C375.118 24.848 376.33 25.136 377.242 25.424C378.154 25.712 378.934 26.204 379.582 26.9C380.23 27.596 380.554 28.556 380.554 29.78C380.554 31.436 379.858 32.756 378.466 33.74C377.098 34.7 375.19 35.18 372.742 35.18Z" fill="#323264"/>
        </g>
        <defs>
        <clipPath id="clip0_155432_1917">
        <rect width="382" height="60" fill="white"/>
        </clipPath>
        </defs>
    </symbol>

    <symbol id="gray-facebook" viewBox="0 0 24 25" fill="none">
        <g clip-path="url(#clip0_155643_1952)">
        <path d="M24 12.5733C24 5.90541 18.6274 0.5 12 0.5C5.37258 0.5 0 5.90541 0 12.5733C0 18.5995 4.38823 23.5943 10.125 24.5V16.0633H7.07813V12.5733H10.125V9.91343C10.125 6.88755 11.9165 5.21615 14.6576 5.21615C15.9705 5.21615 17.3438 5.45195 17.3438 5.45195V8.42313H15.8306C14.3399 8.42313 13.875 9.35379 13.875 10.3086V12.5733H17.2031L16.6711 16.0633H13.875V24.5C19.6118 23.5943 24 18.5995 24 12.5733Z" fill="#B3B3BA"/>
        </g>
        <defs>
        <clipPath id="clip0_155643_1952">
        <rect width="24" height="24" fill="white" transform="translate(0 0.5)"/>
        </clipPath>
        </defs>
    </symbol>
    
</svg>